<svg xmlns="http://www.w3.org/2000/svg" width="96" height="96" viewBox="0 0 96 96">
    <defs>
        <linearGradient id="grad" x1="0%" y1="0%" x2="100%" y2="100%">
            <stop offset="0%" stop-color="#2563eb"/>
            <stop offset="50%" stop-color="#5c48e8"/>
            <stop offset="100%" stop-color="#5c48e8"/>
        </linearGradient>
    </defs>
    <rect x="0" y="0" width="96" height="96" fill="url(#grad)" stroke-width="0" stroke="white" stroke-opacity="0.2"/>
    <g transform="translate(5,5) scale(0.085)" fill="white">
        <path d="M330.71 279.64a27 27 0 1 0 46.77-27L329 168.75a27 27 0 0 0-46.77 27zM141.1 356.69l50.57 29.19a27 27 0 1 0 27-46.77l-50.57-29.19a27 27 0 0 0-27 46.77zM924.68 513h-96.74a27 27 0 0 0 0 54h96.74a27 27 0 0 0 0-54zM223.11 540a27 27 0 0 0-27-27H99.32a27 27 0 1 0 0 54h96.79a27 27 0 0 0 27-27zM832.31 385.89l50.58-29.2a27 27 0 1 0-27-46.77l-50.58 29.2a27 27 0 1 0 27 46.77zM191.69 693.4l-50.59 29.2a27 27 0 1 0 27 46.77l50.58-29.2a27 27 0 0 0-27-46.77zM656.45 289.45a27 27 0 0 0 36.88-9.88l48.4-83.82a27 27 0 1 0-46.77-27l-48.4 83.82a27 27 0 0 0 9.89 36.88zM367.53 789.87a27 27 0 0 0-36.88 9.88l-48.37 83.78a27 27 0 1 0 46.77 27l48.37-83.78a27 27 0 0 0-9.89-36.88zM512 212.48a27 27 0 0 0 27-27V127a27 27 0 0 0-54 0v58.52a27 27 0 0 0 27 26.96zM559.65 361.82a182.91 182.91 0 0 0-139.7 18.39C332 431 301.81 543.78 352.56 631.7a184.1 184.1 0 1 0 207.09-269.88z m78 211.5a130.05 130.05 0 1 1-125.86-163.83 130.88 130.88 0 0 1 33.88 4.51 130.1 130.1 0 0 1 92 159.34z"/>
        <path d="M581.25 281.18a267.58 267.58 0 0 0-138.5 516.93 269.07 269.07 0 0 0 69.69 9.23 267.64 267.64 0 0 0 68.82-526.16z m137 313.74A213.49 213.49 0 1 1 511.65 326a214.8 214.8 0 0 1 55.63 7.37 213.58 213.58 0 0 1 151 261.58z"/>
        <path d="M475.96734 477.256072m-23.936942 13.82a27.64 27.64 0 1 0 47.873884-27.64 27.64 27.64 0 1 0-47.873884 27.64Z"/>
    </g>
</svg>
